<?xml version="1.0" encoding="utf-8"?>
<svg xmlns="http://www.w3.org/2000/svg" viewBox="0 0 500 500">
  <defs>
    <clipPath clipPathUnits="userSpaceOnUse" id="clipPath2">
      <path d="M 0,1190.551 H 841.89 V 0 H 0 Z" transform="translate(-413.31251,-876.38282)" id="path2"/>
    </clipPath>
    <clipPath clipPathUnits="userSpaceOnUse" id="clipPath4">
      <path d="M 0,1190.551 H 841.89 V 0 H 0 Z" transform="translate(-399.61131,-701.41312)" id="path4"/>
    </clipPath>
    <clipPath clipPathUnits="userSpaceOnUse" id="clipPath6">
      <path d="M 0,1190.551 H 841.89 V 0 H 0 Z" transform="translate(-391.66111,-759.02252)" id="path6"/>
    </clipPath>
    <clipPath clipPathUnits="userSpaceOnUse" id="clipPath8">
      <path d="M 0,1190.551 H 841.89 V 0 H 0 Z" transform="translate(-501.39841,-784.26172)" id="path8"/>
    </clipPath>
  </defs>
  <g id="layer-MC0" transform="matrix(2.053138, 0, 0, 2.050255, -875.957153, -855.784363)" style="">
    <path id="path1" d="m 0,0 c -31.744,0.62 -59.97,-15.227 -76.557,-39.683 0.304,-0.349 0.578,-0.689 0.817,-0.996 0.178,-0.208 0.338,-0.415 0.484,-0.585 0.096,-0.008 0.17,-0.029 0.241,-0.049 1.182,-0.214 2.951,-0.532 4.472,-1.91 0.952,-0.865 1.566,-1.827 2.064,-2.597 0.211,-0.33 0.502,-0.786 0.635,-0.918 0.258,-0.254 0.656,-0.553 1.08,-0.877 0.68,-0.52 1.461,-1.105 2.213,-1.876 0.633,-0.643 1.211,-1.294 1.764,-1.927 0.381,-0.461 0.752,-0.882 1.129,-1.281 0.288,-0.318 0.689,-0.67 1.104,-1.047 0.626,-0.558 1.325,-1.193 2.005,-1.965 0.869,-0.967 1.365,-1.991 1.758,-2.81 0.162,-0.304 0.394,-0.764 0.486,-0.902 v 0.008 c 0.612,-0.719 1.196,-1.465 1.759,-2.177 l 0.881,-1.108 c 0.157,-0.192 0.53,-0.516 0.876,-0.8 0.668,-0.574 1.504,-1.278 2.236,-2.251 0.562,-0.729 1.016,-1.436 1.451,-2.133 0.336,-0.5 0.637,-0.969 0.937,-1.388 0.704,-0.965 1.141,-1.955 1.499,-2.758 0.189,-0.435 0.381,-0.897 0.543,-1.112 0.156,-0.217 0.484,-0.563 0.832,-0.92 0.584,-0.592 1.298,-1.334 1.937,-2.283 0.666,-0.992 1.055,-2.005 1.371,-2.814 0.12,-0.32 0.253,-0.648 0.362,-0.887 0.115,-0.085 0.27,-0.184 0.398,-0.273 0.823,-0.553 2.079,-1.4 2.961,-2.839 0.492,-0.808 0.824,-1.615 1.094,-2.302 l 1.729,-1.175 c 2.818,-1.894 4.002,-0.909 2.634,2.198 l -15.902,36.245 c -1.36,3.112 -0.803,3.441 1.246,0.73 l 23.711,-31.362 c 2.051,-2.714 3.486,-2.163 3.198,1.222 l -3.334,39.344 c -0.284,3.383 0.363,3.51 1.431,0.295 l 11.469,-37.141 c 1.085,-3.227 2.506,-3.14 3.168,0.191 l 6.416,38.302 c 0.665,3.345 1.326,3.288 1.474,-0.106 l 1.635,-39.168 c 0.145,-3.395 1.639,-3.761 3.344,-0.824 l 19.572,33.889 c 1.695,2.943 2.303,2.688 1.332,-0.576 L 14.869,-80.811 c -0.965,-3.25 0.346,-4.089 2.91,-1.866 l 29.364,25.489 c 2.558,2.229 3.056,1.78 1.082,-0.987 l -16.897,-23.7 c 0.858,0.025 1.723,0.057 2.393,0.428 1.375,0.738 2.175,2.623 3.59,3.313 1.419,0.679 3.269,0.442 4.714,1.073 1.428,0.636 2.428,2.332 3.873,2.915 1.452,0.581 2.969,1 4.415,1.529 1.593,0.587 3.07,1.496 4.636,2.024 1.582,0.524 3.256,0.759 4.809,1.236 1.545,0.479 3.428,-0.193 4.945,0.24 1.652,0.462 2.92,2.227 4.516,2.637 1.611,0.417 3.347,0.165 4.869,0.525 1.656,0.394 3.351,0.338 4.896,0.668 1.674,0.362 3.157,1.238 4.674,1.531 0.297,0.059 0.602,0.082 0.906,0.095 C 73.379,-27.44 39.99,-0.779 0,0" style="fill:#f04431;fill-opacity:1;fill-rule:nonzero;stroke:none" transform="matrix(1.3333333,0,0,-1.3333333,551.08333,418.8896)" clip-path="url(#clipPath2)"/>
    <path id="path3" d="m 0,0 c 0.003,0.09 0.035,0.181 0.057,0.261 -0.061,0.123 -0.138,0.26 -0.212,0.373 -0.426,0.765 -1.027,1.806 -1.312,3.142 -0.106,0.509 -0.275,1.087 -0.465,1.703 -0.213,0.677 -0.446,1.45 -0.635,2.263 -0.237,1.058 -0.265,2.053 -0.308,2.848 -0.015,0.493 -0.035,0.998 -0.096,1.244 -0.202,0.854 -0.322,1.649 -0.428,2.37 -0.085,0.598 -0.165,1.177 -0.281,1.634 -0.097,0.399 -0.299,0.891 -0.509,1.421 -0.276,0.693 -0.606,1.486 -0.832,2.393 l -0.237,0.869 -0.787,2.979 c -0.134,0.477 -0.336,1.018 -0.549,1.583 -0.246,0.649 -0.519,1.372 -0.74,2.149 -0.405,1.376 -0.357,2.665 -0.318,3.585 0.011,0.281 0.021,0.609 0.013,0.775 -0.168,0.538 -0.382,1.106 -0.617,1.71 -0.245,0.632 -0.498,1.281 -0.721,1.989 -0.062,0.129 -0.298,0.442 -0.466,0.687 -0.526,0.718 -1.24,1.7 -1.676,2.989 -0.12,0.364 -0.356,0.849 -0.618,1.354 -0.339,0.672 -0.738,1.438 -1.041,2.32 -0.243,0.69 -0.509,1.38 -0.792,2.098 l -0.619,1.624 c -0.578,1.543 -0.471,3.025 -0.405,3.996 0.015,0.127 0.024,0.282 0.031,0.417 -0.156,0.333 -0.355,0.713 -0.593,1.122 -0.362,0.674 -0.791,1.429 -1.15,2.3 -0.089,0.236 -0.384,0.651 -0.646,1.054 -0.446,0.666 -1.005,1.492 -1.429,2.501 -0.353,0.842 -0.605,1.643 -0.826,2.35 -0.17,0.561 -0.33,1.093 -0.494,1.464 -0.293,0.663 -0.542,1.31 -0.788,1.931 -0.255,0.632 -0.496,1.228 -0.743,1.756 l -0.747,1.649 c -0.33,0.744 -0.65,1.454 -0.979,2.128 -0.116,0.252 -0.433,0.659 -0.739,1.056 -0.49,0.625 -1.083,1.401 -1.574,2.37 -0.54,1.056 -0.797,2.086 -1.011,2.9 -0.07,0.265 -0.151,0.594 -0.213,0.808 -0.125,0.11 -0.284,0.237 -0.415,0.354 -0.758,0.602 -1.794,1.437 -2.53,2.773 -0.731,1.293 -0.941,2.597 -1.101,3.531 -0.04,0.253 -0.092,0.573 -0.136,0.723 -0.481,0.847 -0.803,1.682 -1.069,2.362 -0.134,0.354 -0.268,0.712 -0.395,0.975 -0.125,0.092 -0.281,0.199 -0.412,0.289 -0.847,0.561 -1.998,1.331 -2.847,2.685 -0.625,0.96 -0.995,1.921 -1.295,2.706 -0.157,0.389 -0.341,0.879 -0.461,1.044 -0.174,0.268 -0.524,0.622 -0.895,1.005 -0.561,0.571 -1.185,1.226 -1.767,2.055 -0.654,0.945 -1.071,1.891 -1.41,2.646 -0.18,0.396 -0.391,0.889 -0.508,1.055 -0.476,0.651 -0.883,1.28 -1.242,1.849 -0.36,0.561 -0.708,1.094 -1.03,1.513 -0.165,0.214 -0.564,0.549 -0.947,0.875 -0.602,0.524 -1.361,1.17 -2.034,2.012 l -0.932,1.171 c -0.544,0.689 -1.054,1.339 -1.565,1.943 -0.821,0.965 -1.307,1.951 -1.683,2.752 -0.145,0.283 -0.343,0.678 -0.433,0.806 -0.355,0.392 -0.804,0.799 -1.281,1.225 -0.512,0.465 -1.091,0.997 -1.667,1.594 -0.485,0.528 -0.923,1.024 -1.356,1.52 -0.476,0.556 -0.93,1.086 -1.36,1.518 -0.312,0.318 -0.783,0.662 -1.266,1.042 -0.572,0.44 -1.216,0.927 -1.857,1.539 -0.909,0.877 -1.5,1.812 -1.989,2.556 -0.095,0.146 -0.202,0.307 -0.29,0.455 -0.098,0.02 -0.187,0.033 -0.266,0.054 -1.082,0.197 -2.716,0.494 -4.109,1.683 -0.258,0.224 -0.502,0.453 -0.728,0.674 -6.504,-12.17 -10.334,-26.02 -10.625,-40.764 -0.9,-46.422 33.372,-85.326 78.335,-91.298 -0.084,0.309 -0.169,0.616 -0.23,0.947 C -0.584,-2.353 -0.238,-0.943 0,0" style="fill:#1aaf6a;fill-opacity:1;fill-rule:nonzero;stroke:none" transform="matrix(1.3333333,0,0,-1.3333333,532.81507,652.18253)" clip-path="url(#clipPath4)"/>
    <path id="path5" d="M 0,0 C 0.151,-0.369 0.406,-0.822 0.675,-1.323 1.081,-2.048 1.549,-2.875 1.936,-3.842 2.538,-5.421 2.428,-6.904 2.358,-7.903 2.351,-8.056 2.329,-8.253 2.325,-8.397 l 0.461,-1.196 c 0.297,-0.759 0.596,-1.537 0.889,-2.359 0.125,-0.342 0.359,-0.795 0.596,-1.277 0.365,-0.731 0.779,-1.547 1.112,-2.527 -0.03,0.062 -0.042,0.096 -0.042,0.096 0.072,-0.116 0.305,-0.447 0.465,-0.689 0.549,-0.751 1.291,-1.777 1.727,-3.133 0.158,-0.488 0.366,-1.016 0.579,-1.596 0.297,-0.76 0.596,-1.539 0.857,-2.402 0.427,-1.395 0.373,-2.704 0.344,-3.666 -0.023,-0.265 -0.023,-0.625 -0.023,-0.791 0.135,-0.415 0.305,-0.894 0.496,-1.394 0.276,-0.704 0.575,-1.497 0.817,-2.377 l 0.822,-3.086 0.232,-0.885 c 0.093,-0.355 0.274,-0.826 0.481,-1.327 0.299,-0.75 0.636,-1.604 0.888,-2.584 0.213,-0.89 0.339,-1.751 0.457,-2.51 0.084,-0.581 0.165,-1.14 0.276,-1.604 0.254,-1.088 0.297,-2.114 0.327,-2.937 0.012,-0.487 0.044,-0.985 0.106,-1.267 0.112,-0.48 0.276,-1.009 0.444,-1.581 0.215,-0.706 0.456,-1.508 0.648,-2.365 0.054,-0.13 0.217,-0.427 0.342,-0.639 0.453,-0.787 1.072,-1.864 1.342,-3.255 0.33,-1.617 -0.031,-3.065 -0.265,-4.006 -0.042,-0.138 -0.075,-0.299 -0.106,-0.445 0.084,-0.282 0.183,-0.639 0.308,-1.016 0.213,-0.612 0.42,-1.307 0.588,-2.073 0.23,-0.009 0.427,-0.027 0.638,-0.027 26.716,-0.522 50.936,10.605 67.817,28.701 C 54.589,-10.513 16.079,-2.067 -0.266,0.574 -0.167,0.384 -0.081,0.19 0,0" style="fill:#2056ae;fill-opacity:1;fill-rule:nonzero;stroke:none" transform="matrix(1.3333333,0,0,-1.3333333,522.2148,575.37)" clip-path="url(#clipPath6)"/>
    <path id="path7" d="m 0,0 c 0.127,6.858 -0.531,13.547 -1.859,19.991 -0.559,-0.097 -1.129,-0.188 -1.682,-0.286 -1.545,-0.282 -2.922,-1.289 -4.395,-1.579 -1.509,-0.31 -2.953,-0.772 -4.406,-1.107 -1.599,-0.369 -3.219,-0.428 -4.744,-0.831 -1.557,-0.388 -3.219,-0.258 -4.705,-0.682 -1.506,-0.436 -2.768,-1.608 -4.191,-2.068 -1.577,-0.504 -3.229,-0.629 -4.711,-1.157 -1.52,-0.534 -3.241,-0.458 -4.672,-1.017 -1.451,-0.579 -2.639,-1.741 -3.996,-2.33 -1.502,-0.641 -3.17,-0.823 -4.551,-1.48 -1.531,-0.725 -2.658,-2.116 -4.041,-2.85 -1.434,-0.748 -2.865,-1.365 -4.158,-2.124 -1.422,-0.826 -2.965,-1.339 -4.225,-2.151 -1.398,-0.894 -2.365,-2.262 -3.576,-3.121 -1.393,-0.998 -2.44,-2.266 -3.6,-3.194 -1.347,-1.09 -2.992,-1.594 -4.039,-2.561 -1.06,-0.965 -2.213,-1.629 -3.109,-2.343 l -2.018,-3.246 c -0.422,-1.526 -0.422,-2.651 -1.07,-1.71 l -4.361,-7.01 c 18.302,-5.599 40.228,-14.835 59.718,-30.012 C -7.205,-38.149 -0.391,-19.896 0,0" style="fill:#f89c0e;fill-opacity:1;fill-rule:nonzero;stroke:none" transform="matrix(1.3333333,0,0,-1.3333333,668.5312,541.71773)" clip-path="url(#clipPath8)"/>
  </g>
</svg>